HIERARCHY
ROOT hip
{
	OFFSET 0.000000 0.000000 0.000000 
	CHANNELS 6 Xposition Yposition Zposition Xrotation Zrotation Yrotation
	JOINT abdomen
	{
		OFFSET 0.000000 3.402643 0.000000 
		CHANNELS 3 Xrotation Zrotation Yrotation
		JOINT chest
		{
			OFFSET 0.000000 8.438565 -0.680529 
			CHANNELS 3 Xrotation Zrotation Yrotation
			JOINT neck
			{
				OFFSET 0.000000 10.207942 -0.272212 
				CHANNELS 3 Xrotation Zrotation Yrotation
				JOINT head
				{
					OFFSET 0.000000 3.130431 0.000000 
					CHANNELS 3 Xrotation Zrotation Yrotation
					End Site
					{
						OFFSET 0.000000 3.130435 0.000000 
					}
				}
			}
			JOINT lCollar
			{
				OFFSET 3.470700 6.669187 -0.816635 
				CHANNELS 3 Yrotation Zrotation Xrotation
				JOINT lShldr
				{
					OFFSET 3.198488 0.000000 0.000000 
					CHANNELS 3 Zrotation Yrotation Xrotation
					JOINT lForeArm
					{
						OFFSET 10.139888 0.000000 0.000000 
						CHANNELS 3 Yrotation Zrotation Xrotation
						JOINT lHand
						{
							OFFSET 8.370511 0.000000 0.000000 
							CHANNELS 3 Zrotation Yrotation Xrotation
							End Site
							{
								OFFSET 4.083176 0.000000 0.000000 
							}
						}
					}
				}
			}
			JOINT rCollar
			{
				OFFSET -3.470700 6.669187 -0.816635 
				CHANNELS 3 Yrotation Zrotation Xrotation
				JOINT rShldr
				{
					OFFSET -3.198488 0.000000 0.000000 
					CHANNELS 3 Zrotation Yrotation Xrotation
					JOINT rForeArm
					{
						OFFSET -10.139888 0.000000 0.000000 
						CHANNELS 3 Yrotation Zrotation Xrotation
						JOINT rHand
						{
							OFFSET -8.370511 0.000000 0.000000 
							CHANNELS 3 Zrotation Yrotation Xrotation
							End Site
							{
								OFFSET -4.083176 0.000000 0.000000 
							}
						}
					}
				}
			}
		}
	}
	JOINT lThigh
	{
		OFFSET 5.308129 -1.633274 1.361059 
		CHANNELS 3 Xrotation Zrotation Yrotation
		JOINT lShin
		{
			OFFSET -2.041588 -20.007561 0.000000 
			CHANNELS 3 Xrotation Zrotation Yrotation
			JOINT lFoot
			{
				OFFSET 0.000000 -19.190928 -1.224953 
				CHANNELS 3 Xrotation Yrotation Zrotation
				End Site
				{
					OFFSET 0.000000 -2.449906 4.627600 
				}
			}
		}
	}
	JOINT rThigh
	{
		OFFSET -5.308129 -1.633274 1.361059 
		CHANNELS 3 Xrotation Zrotation Yrotation
		JOINT rShin
		{
			OFFSET 2.041588 -20.007561 0.000000 
			CHANNELS 3 Xrotation Zrotation Yrotation
			JOINT rFoot
			{
				OFFSET 0.000000 -19.190928 -1.224953 
				CHANNELS 3 Xrotation Yrotation Zrotation
				End Site
				{
					OFFSET 0.000000 -2.449906 4.627600 
				}
			}
		}
	}
}
MOTION
Frames: 10
Frame Time: 0.033333
-34.999832 49.943947 22.631958 -1.073068 -2.224910 -5.795734 0.000000 0.000000 0.000000 -0.545721 0.243989 -2.021466 5.144625 0.238821 -11.982520 7.434904 -1.897747 -9.448804 -6.819507 -3.656313 -0.048384 -40.194324 -12.173628 -18.437298 -83.739601 5.528024 59.098431 35.487125 6.992605 -2.397537 0.304232 -0.976097 0.088043 -18.524714 8.414197 -23.167318 41.455524 -2.837291 36.891338 -40.858295 -3.285839 -3.538515 4.400857 11.732042 9.782138 11.979373 -1.484471 22.034245 -9.023303 1.000266 -12.614879 0.233231 -5.802995 -7.023640 12.525119 2.348697 -28.363857 -6.618755 -0.590958 9.686130 
-34.932888 49.959423 22.664598 -1.103453 -2.339780 -6.196989 0.000000 0.000000 0.000000 -0.469156 0.312334 -1.865260 5.468577 0.504097 -13.105984 3.717548 -2.968234 -10.385344 -6.854880 -3.477728 0.010270 -40.530930 -11.703610 -18.556400 -84.072456 5.487314 58.841717 35.189976 6.888205 -2.439003 0.753139 -0.496251 0.136786 -19.286179 9.167967 -22.818268 40.462845 -2.769835 36.288807 -41.151730 -2.670814 -3.763793 4.628076 11.659069 9.821658 11.832445 -1.435254 22.603340 -8.970082 1.007956 -12.684558 0.594698 -5.706808 -6.902206 11.941174 2.252975 -28.067163 -6.355465 -0.573406 9.644020 
-34.868301 49.974686 22.681902 -0.694841 -2.532117 -6.569007 0.000000 0.000000 0.000000 -0.699863 0.507552 -1.835952 5.424876 0.871174 -14.151989 0.544648 -4.072976 -11.102772 -6.727582 -3.056736 -0.164639 -41.144707 -11.091528 -18.250099 -84.281258 5.433780 58.928467 35.386177 7.033751 -2.388787 0.956844 -0.138024 -0.078114 -19.777336 10.251178 -22.886623 40.029457 -2.681265 35.670933 -41.248451 -2.690978 -3.760126 4.509709 11.735852 9.855664 11.475755 -1.431954 23.042179 -8.874379 1.005255 -12.790129 0.507275 -5.526022 -6.703856 11.226036 2.250786 -28.022295 -5.954974 -0.503341 9.482739 
-34.822277 49.972691 22.711136 -0.568425 -2.529860 -6.999133 0.000000 0.000000 0.000000 -0.768704 0.536848 -1.787122 5.347428 0.972201 -14.865399 -1.897094 -4.792889 -11.613650 -6.487507 -3.294960 -0.223366 -41.043510 -10.806867 -17.961798 -84.231339 5.412284 58.913181 35.877426 7.025954 -2.373488 1.142062 -0.217569 -0.136691 -19.992712 11.441262 -23.055084 39.487175 -2.625025 35.667679 -41.286999 -2.700853 -3.751841 4.529272 11.647881 9.846724 11.554319 -1.480950 23.443771 -9.002636 1.010534 -12.835129 0.301325 -5.557703 -6.651115 11.248329 2.243556 -27.807001 -5.914160 -0.532833 9.479322 
-34.783684 49.973297 22.748112 -0.634349 -2.498796 -7.360961 0.000000 0.000000 0.000000 -0.755144 0.439262 -1.689478 5.271630 1.111378 -15.325184 -3.169207 -4.986662 -12.009467 -6.525615 -3.050669 -0.223360 -41.557137 -10.397010 -17.861662 -84.328636 5.440196 59.436573 35.634270 6.988613 -2.399057 1.367011 -0.081154 -0.126917 -20.267307 12.568497 -22.989285 38.722717 -2.595909 35.827141 -41.158867 -2.713624 -3.752286 4.413234 11.561088 9.832863 12.088755 -1.557549 23.945065 -9.225170 1.029644 -12.640116 0.379883 -5.694177 -6.678791 11.209630 2.224224 -27.264139 -5.918927 -0.508969 9.511076 
-34.753521 49.968582 22.781319 -0.769058 -2.429585 -7.614618 0.000000 0.000000 0.000000 -0.675666 0.409992 -1.621122 5.104244 1.025210 -15.607976 -3.729310 -5.124680 -12.286971 -6.659105 -3.204549 -0.154955 -41.657730 -10.095531 -17.989267 -84.427292 5.418430 59.669769 35.100914 7.187739 -2.353097 1.621058 -0.031231 -0.068332 -20.540609 13.360289 -22.992016 38.104534 -2.486918 35.445332 -41.232471 -2.945652 -3.666334 4.469260 11.372383 9.765193 12.238111 -1.532217 24.584034 -9.266093 1.024500 -12.687046 0.399327 -5.846079 -6.748211 11.353374 2.202207 -27.198654 -5.904249 -0.494138 9.549190 
-34.705936 49.978088 22.810165 -0.886452 -2.360628 -7.829262 0.000000 0.000000 0.000000 -0.551422 0.488071 -1.679710 4.864929 0.620564 -15.674683 -4.027153 -4.892199 -12.468341 -6.518398 -3.976618 -0.067754 -41.212887 -10.414357 -18.260363 -84.439629 5.474192 59.587391 34.762527 7.251345 -2.353173 1.591996 -0.233019 0.048849 -20.844948 14.263383 -23.537827 37.663883 -2.429191 35.584770 -40.825649 -2.870736 -3.690752 4.984963 11.076303 9.660182 11.611098 -1.421193 24.804041 -9.052773 1.048596 -12.700567 0.556443 -6.004467 -6.855296 11.228520 2.204104 -26.883848 -5.844004 -0.522964 9.534905 
-34.680901 49.976936 22.820551 -0.668555 -2.408146 -7.976028 0.000000 0.000000 0.000000 -0.721659 0.624725 -1.699224 4.546241 0.508073 -15.537695 -3.915745 -4.845613 -12.409135 -6.549461 -4.154100 -0.223268 -41.194008 -10.208311 -18.199148 -84.601486 5.461173 59.770596 34.248737 7.304978 -2.353639 1.552128 -0.325176 -0.107381 -20.824842 14.994770 -24.142794 37.525040 -2.394671 35.566586 -40.216610 -3.204649 -3.571296 4.635204 11.098501 9.611858 11.917613 -1.423669 25.285774 -9.143261 1.023496 -12.779949 0.399857 -5.944182 -6.745208 11.072347 2.194410 -26.708481 -5.763165 -0.514723 9.493685 
-34.680870 49.970566 22.843779 -0.562926 -2.494406 -8.103706 0.000000 0.000000 0.000000 -0.850521 0.693058 -1.689566 4.352556 0.546349 -15.293654 -3.715413 -4.753066 -12.250178 -6.614660 -3.946193 -0.330391 -41.521076 -9.938538 -18.097942 -85.049294 5.417290 59.752060 33.545002 7.264745 -2.391597 1.757722 -0.026421 -0.224504 -21.189196 15.215168 -24.464191 37.428940 -2.333727 35.041275 -40.429005 -3.410011 -3.498606 4.586132 11.186125 9.639803 11.958571 -1.395660 25.227812 -9.230237 1.056362 -12.864378 0.360080 -5.844169 -6.630623 10.995499 2.168500 -26.656883 -5.745624 -0.494853 9.533810 
-34.675869 49.973801 22.881493 -0.691500 -2.435443 -8.259802 0.000000 0.000000 0.000000 -0.818958 0.654044 -1.591805 4.325531 0.405779 -14.912489 -3.618058 -4.508078 -12.059727 -6.515516 -4.047735 -0.301414 -41.656582 -9.967635 -18.073696 -85.504898 5.398267 59.915634 33.326832 7.022702 -2.458299 1.787099 -0.006091 -0.195218 -21.265894 15.272017 -24.916500 37.864330 -2.402021 35.335415 -40.227829 -3.491281 -3.469308 5.046519 11.021961 9.655414 11.494321 -1.401832 25.485802 -9.065306 1.048300 -12.894789 0.448985 -5.956910 -6.705926 11.044305 2.146805 -26.499601 -5.762118 -0.501029 9.520850 
